PathFileType	4	(X/Y/Z)	Patient4_TMGait_0pt3_02_right_21.trc.trc
DataRate	CameraRate	NumFrames	NumMarkers	Units	OrigDataRate	OrigDataStartFrame	OrigNumFrames
50.179211469534	50.179211469534	5	33	mm	50.179211469534	53	       141
Frame#	Time	Sacral			L.Shoulder			Chest			R.Shoulder			Neck			R.ASIS			L.ASIS			R.Thigh.Superior			R.Thigh.Lateral			R.Thigh.Inferior			R.Patella			L.Thigh.Superior			L.Thigh.Lateral			L.Thigh.Inferior			L.Patella			L.Shank.Superior			L.Shank.Lateral			L.Shank.Inferior			R.Shank.Superior			R.Shank.Lateral			R.Shank.Inferior			R.Heel			R.Midfoot.Superior			R.Midfoot.Lateral			R.Toe			L.Heel			L.Midfoot.Lateral			L.Midfoot.Superior			L.Toe			L.Elbow			L.Wrist			R.Elbow			R.Wrist			
		X1	Y1	Z1	X2	Y2	Z2	X3	Y3	Z3	X4	Y4	Z4	X5	Y5	Z5	X6	Y6	Z6	X7	Y7	Z7	X8	Y8	Z8	X9	Y9	Z9	X10	Y10	Z10	X11	Y11	Z11	X12	Y12	Z12	X13	Y13	Z13	X14	Y14	Z14	X15	Y15	Z15	X16	Y16	Z16	X17	Y17	Z17	X18	Y18	Z18	X19	Y19	Z19	X20	Y20	Z20	X21	Y21	Z21	X22	Y22	Z22	X23	Y23	Z23	X24	Y24	Z24	X25	Y25	Z25	X26	Y26	Z26	X27	Y27	Z27	X28	Y28	Z28	X29	Y29	Z29	X30	Y30	Z30	X31	Y31	Z31	X32	Y32	Z32	X33	Y33	Z33	

53	41.176285714286	758.848884643346	990.908014662995	560.227029539371	936.354740243788	1416.618774345573	365.452915420092	1047.931666624621	1343.216858646251	518.565702606251	982.255577390826	1417.407504376981	698.926950924541	935.527204971673	1479.678114807248	524.471597482407	998.967493410831	924.112685720349	657.019598899967	960.504405079832	948.221851339188	386.288635945573	1046.609861803858	728.993099506907	610.003964185661	975.002734667879	610.502163331529	662.655921238490	1049.267321986969	568.324002769934	573.134457085575	1053.273392673713	472.066448772919	572.472935414671	1042.729504333227	759.331751842762	413.773608909703	991.460812901728	633.870969474481	337.216124341595	1090.971596818189	567.244597036415	400.922376902076	1100.484930696887	479.441504437403	389.041078656223	1036.502520472968	415.146613073990	374.922509605053	896.185966957744	365.519927405766	331.500744919006	900.607418179229	230.813392085243	371.870720836271	1006.710189432340	385.765791766672	575.343864387287	923.136436212626	290.811305043487	637.541250900096	940.172117612007	196.012779557755	565.609976336729	779.006545591836	44.740313767603	538.702124101247	953.138853014297	96.079473153879	567.671823218889	865.037894186502	37.795747904224	609.363241380786	1072.957536529415	40.170835719056	591.449861289766	722.295158284068	135.927991542854	416.253364877696	776.811901380631	114.729962126121	324.825382386025	880.796715642188	136.179819190935	339.557184530095	970.223155047044	45.171873918212	284.800589513537	899.433578509113	1061.481123500827	256.666616505008	993.848117381086	817.858065435007	249.982955234373	998.738406834479	1061.222890863867	808.415818614562	1129.309611937822	837.091299439028	813.923766461955	
54	41.196214285714	757.430633235041	990.008854849331	562.981690832973	931.572834710194	1415.797047822097	366.555475672413	1045.689225537981	1342.542813281818	517.857281512662	982.896767272970	1416.585640902502	699.334266463296	933.447970772964	1479.002583349484	525.525564062743	998.410523634105	923.193913315538	656.905007104458	957.312822364891	948.084791709623	386.683520979773	1045.111268587508	727.870679299084	609.454883449815	974.030654001442	609.377113719388	662.708047384752	1047.428252090909	567.255141122539	572.406258909135	1051.142782747980	470.719566768817	571.653722653097	1041.700673611219	761.503231858247	414.080760767335	992.735889051074	635.647182960390	336.959749977364	1093.142127317786	570.656526270380	400.614593465187	1105.200062520346	483.940780217874	388.195016789577	1044.553339243391	417.875184507183	373.542799655487	907.347406661699	360.842164097368	330.102424194771	919.649158258796	226.294445911894	369.611494142922	1003.855707005203	384.584184127479	574.753409184489	919.781863934132	290.237202740508	637.363929471697	935.508367634331	195.385206544762	565.329141669867	773.055446682212	44.867879938462	538.785595515077	947.199819050700	96.008263228037	567.640030097223	859.092759237621	37.805880894172	609.404754402393	1067.011475344239	40.026718786976	591.465195083769	747.422979119297	120.805229565121	414.053270325754	802.846764702291	103.679033293249	322.183946633693	905.362062660352	131.063464143129	336.722728705758	999.844535353084	46.208029748678	280.899531744888	882.472923961562	1061.271016095865	260.836092590025	960.620597219075	811.807979123211	255.077436384116	1015.214048020460	1061.071056831058	807.517174228952	1163.155875941189	847.952309276404	807.889685290590	
55	41.216142857143	756.069466839000	989.593143266643	565.482874035727	926.767833107263	1415.479011576198	367.569667325468	1043.460921837784	1342.316625974122	516.936779863409	983.648540720318	1416.209504401595	699.497657282703	931.380990003086	1478.740689633912	526.431992858650	997.873989250121	922.617561687906	656.463679649302	954.151512651885	948.319410407289	386.768850667663	1043.212211516773	726.934815335251	608.667004056519	972.488819951797	608.587821996716	662.708665486717	1044.860874783882	566.348985839858	571.624053462105	1048.146910587225	469.656680858762	570.859718222196	1040.153067698372	763.663331332840	414.079828901397	993.181735089223	637.587717338429	336.323729652482	1094.258818931260	573.997185441612	399.931545557496	1108.775459414051	488.635444336030	387.016035323543	1051.804666571949	420.923997835934	371.861326555536	918.506693608304	356.035808011281	328.027573688542	939.076989520626	222.132841493319	366.919292234869	1000.297409809993	383.674539187652	574.212613713050	915.925254900553	289.805912641539	637.251571954041	930.559998289590	194.923775704169	565.116420076205	767.088108326760	45.018309708024	538.891013259426	941.235218190348	95.939477677962	567.619163910483	853.136488492904	37.816332469934	609.463155320583	1061.048419900333	39.896986047722	591.471252488611	773.716476564093	106.062170874040	411.002540721083	830.228536522679	92.737929172741	319.023731863802	930.911701144460	126.204191320986	333.630899921724	1030.467876021502	47.637659634700	277.535373182776	865.393830727358	1062.163720674334	264.866432018390	928.103517716504	808.344325443456	260.403949280354	1031.400539126581	1062.189306629016	806.220705947989	1195.931559330577	861.564073214160	801.308140769996	
56	41.236071428571	754.779474169669	989.704844024862	567.722814740760	921.998744842717	1415.705156629577	368.473061105770	1041.274029622396	1342.565376075768	515.799009593458	984.516464302882	1416.312235007893	699.398874034407	929.356350363534	1478.925671058485	527.166392350968	997.352096462614	922.429297167310	655.732790783352	951.050632349510	948.949468567193	386.557548437369	1040.902448019700	726.220603253774	607.723381454999	970.312118370591	608.176560670640	662.697513331482	1041.533926327421	565.636970754761	570.875450269042	1044.245236778464	468.913166450985	570.184079954162	1038.122479507775	765.810662239121	413.775875804126	992.792681308584	639.661863299239	335.322311734723	1094.361677996457	577.214814439816	398.843908150943	1111.196781880374	493.453987834206	385.524017298514	1058.154076544701	424.290750349377	369.943210962367	929.546970471020	351.376405721995	325.344979038900	958.520967093325	218.661879602409	363.913097670168	995.991887574568	383.073970059864	573.789350169858	911.513376830243	289.548369274310	637.248311866039	925.305346461108	194.657774467436	565.006236522656	761.102741383656	45.199242697641	539.017487065691	935.255586984493	95.879045590395	567.620908965329	847.168493858511	37.831959135534	609.537930967411	1055.067248035813	39.779953818124	591.469906839172	800.672682763830	92.391979379380	407.245396668881	858.447975732590	82.513062738523	315.496297284310	956.950809256748	122.009310667521	330.424891406757	1061.431556395894	49.685887718204	274.872491098617	848.442326046597	1064.177440973430	268.751324536062	896.736610358499	807.287911973264	265.883758887695	1047.096189718327	1064.549112696554	804.550650193398	1227.104622558952	877.697788863775	794.335564106239	
57	41.256000000000	753.577695098017	990.347255875365	569.691283811873	917.328800175375	1416.470885615465	369.235910103707	1039.152316951869	1343.282571040184	514.445858561132	985.484477819849	1416.896294477418	699.023431020492	927.397249353290	1479.556207226112	527.697678962361	996.837180003536	922.641323553670	654.762614568894	948.043257207707	949.969193686524	386.075852696895	1038.190175845390	725.742062402064	606.705237161915	967.465757259502	608.158247299467	662.705502347191	1037.450758360793	565.134231303646	570.234679092985	1039.437879311501	468.504349286385	569.699186948773	1035.667811631013	767.925524868029	413.157274929938	991.566418847649	641.814948938729	333.977553415279	1093.501704531540	580.239258996890	397.317383416644	1112.460058739713	498.300785555198	383.741296606914	1063.506675747272	427.937931909462	367.852975026475	940.319722782314	347.081771986924	322.142168081309	977.601476759008	216.115374652577	360.712349212825	990.934684974508	382.798459264401	573.533705068908	906.522654073067	289.482493396169	637.380547187435	919.739894217281	194.602261686602	565.019385802969	755.099657323504	45.412856938439	539.161306793879	929.273086421878	95.832890420085	567.654697039923	841.188788381801	37.856613640175	609.626934039082	1049.068009541699	39.674304010600	591.463783646909	827.749791914178	80.309539583035	402.949082313594	886.958802817338	73.469713564073	311.760055700248	982.968987571921	118.779397669661	327.236637149306	1092.101448494157	52.512676994348	273.021768430723	831.864929254420	1067.256798190443	272.481077862143	866.904228527055	808.364995370090	271.425755307003	1062.117808363899	1068.061839338707	802.535311292165	1256.224071429313	896.003791731038	787.119757302703	
